<svg xmlns="http://www.w3.org/2000/svg" viewBox="0 0 240 340" fill="#e44b6a">
  <!-- Traced from Myla's actual footprint photo -->

  <!-- Big toe - large, slightly left of center top -->
  <path d="M95,8 C105,2 118,0 126,4 C134,8 138,18 137,30 C136,40 130,48 122,50 C114,52 104,48 98,40 C92,32 88,18 95,8 Z"/>

  <!-- Second toe - right of big toe -->
  <path d="M138,14 C145,8 155,8 161,14 C167,20 168,32 164,40 C160,48 152,50 146,46 C138,42 134,30 134,22 C134,18 135,16 138,14 Z"/>

  <!-- Third toe - further right, slightly lower -->
  <path d="M168,30 C174,24 183,24 188,30 C194,38 194,48 190,56 C186,62 178,64 172,58 C166,52 164,40 168,30 Z"/>

  <!-- Fourth toe - lower right -->
  <path d="M190,52 C196,46 204,48 208,54 C214,62 214,72 210,80 C206,86 198,86 194,80 C188,72 186,60 190,52 Z"/>

  <!-- Pinky toe - smallest, rightmost -->
  <path d="M204,78 C210,74 216,76 220,82 C224,90 222,100 218,106 C214,110 208,108 206,102 C202,94 200,84 204,78 Z"/>

  <!-- Ball of foot - large organic mass connecting to arch -->
  <path d="M58,56 C68,44 88,38 108,42 C128,46 148,52 168,58 C188,64 204,78 210,92 C214,102 210,108 200,110 C186,112 170,108 156,104 C140,100 128,98 118,100 C108,102 100,110 94,120 C88,132 82,146 76,160 C70,174 64,188 58,202 C52,216 46,228 40,238 C36,244 32,248 28,246 C22,242 20,232 22,220 C24,206 30,190 36,174 C42,158 48,140 52,122 C56,104 58,86 58,72 C58,64 58,60 58,56 Z"/>

  <!-- Heel - separate blob, lower left, offset from ball -->
  <path d="M18,222 C28,200 48,192 66,196 C82,200 92,216 94,236 C96,256 90,276 78,290 C66,302 50,308 36,304 C22,298 12,284 10,266 C8,250 12,234 18,222 Z"/>
</svg>
