<svg xmlns="http://www.w3.org/2000/svg" viewBox="0 0 100 140" fill="#e44b6a">
  <!-- Big toe -->
  <ellipse cx="58" cy="12" rx="10" ry="11"/>
  <!-- Second toe -->
  <ellipse cx="76" cy="18" rx="8" ry="9"/>
  <!-- Third toe -->
  <ellipse cx="88" cy="32" rx="7" ry="8"/>
  <!-- Fourth toe -->
  <ellipse cx="91" cy="52" rx="6" ry="7"/>
  <!-- Pinky toe -->
  <ellipse cx="87" cy="70" rx="5.5" ry="6"/>
  <!-- Ball and arch of foot -->
  <path d="M20,30 Q10,30 8,45 Q5,65 12,85 Q18,100 25,108 Q35,120 45,128 Q55,135 60,132 Q68,128 70,118 Q72,105 68,90 Q65,78 65,65 Q66,50 62,38 Q58,28 48,24 Q38,22 28,26 Z"/>
</svg>
